# xmcd
#
# Track frame offsets:
#	150
#	18880
#	37767
#	52727
#	73822
#	98712
#	114910
#	131115
#	153412
#	180200
#	198135
#	212970
#	225570
#
# Disc length: 3382 seconds
#
# Revision: 0
# Processed by: cddbd v1.5.2PL0 Copyright (c) Steve Scherf et al.
# Submitted via: audiograbber 1.83.01
#
DISCID=9b0d340d
DTITLE=Various Artist - Honed on the Range - Texas Blues Alive and Well
DYEAR=1999
DGENRE=Blues
TTITLE0=Long John Hunter - Lone Star Shootout
TTITLE1=Clarence "Gatemouth" Brown - Okie Dokie Stomp
TTITLE2=Lou Ann Barton, Marcia Ball and Angela Strehli - Fool in Love
TTITLE3=Henry Qualls - Death Valley Blues
TTITLE4=Pat Boyack and The Prowlers - Righteous Love
TTITLE5=Randy Garibay - Barbacoa Blues
TTITLE6=Robert Ealey - Tica
TTITLE7=Marchel Ivery - Blues Walk
TTITLE8=Big Al Dupree - Nosey Woman
TTITLE9=Herbert "Good Rockin'" Sam - Good Rockin' Sam's Boogie
TTITLE10=Gary Primich - Varmint
TTITLE11=Big Foot Chester - Monkey Dog
TTITLE12=Pete Mayes - House Party
EXTD=Compiled by Texas Monthly magazine
EXTT0=
EXTT1=
EXTT2=
EXTT3=
EXTT4=
EXTT5=
EXTT6=
EXTT7=
EXTT8=
EXTT9=
EXTT10=
EXTT11=
EXTT12=
PLAYORDER=
